<svg width="40" height="40" viewBox="0 0 40 40" fill="none" xmlns="http://www.w3.org/2000/svg">
<rect width="40" height="40" rx="4" fill="#0C0C0C"/>
<path d="M26.7576 9.15068L12.9814 9.14726C12.5395 9.14741 12.1158 9.32306 11.8034 9.63558C11.491 9.94811 11.3155 10.3719 11.3155 10.8138L11.3205 28.6869C11.3207 28.9058 11.3639 29.1226 11.4479 29.3248C11.5318 29.527 11.6548 29.7107 11.8097 29.8654C11.9647 30.0201 12.1486 30.1427 12.351 30.2263C12.5533 30.3098 12.7702 30.3527 12.9891 30.3524L26.7654 30.3558C26.9844 30.3559 27.2013 30.3127 27.4037 30.2288C27.606 30.1449 27.7898 30.022 27.9446 29.867C28.0994 29.712 28.2221 29.528 28.3058 29.3255C28.3894 29.1231 28.4323 28.9061 28.432 28.6871L28.4269 10.814C28.4261 10.3721 28.2497 9.94862 27.9367 9.63669C27.6237 9.32477 27.1996 9.14995 26.7576 9.15068ZM20.7055 19.9808C20.7054 20.1766 20.6365 20.366 20.5108 20.516C20.385 20.666 20.2105 20.767 20.0177 20.8012C19.9696 20.8096 19.9208 20.814 19.872 20.8142L15.4826 20.8129C15.2715 20.7988 15.0737 20.705 14.9293 20.5504C14.7848 20.3958 14.7046 20.1921 14.7048 19.9806C14.7051 19.769 14.7858 19.5655 14.9305 19.4113C15.0753 19.257 15.2733 19.1636 15.4845 19.15L19.8711 19.1475C19.9806 19.1474 20.0891 19.1688 20.1903 19.2106C20.2915 19.2524 20.3835 19.3138 20.461 19.3912C20.5385 19.4686 20.6 19.5605 20.6419 19.6617C20.6839 19.7628 20.7055 19.8713 20.7055 19.9808ZM25.0891 16.6505C25.0891 16.8461 25.0203 17.0354 24.8947 17.1853C24.7692 17.3353 24.5949 17.4363 24.4024 17.4707C24.3539 17.4793 24.3047 17.4834 24.2554 17.4829L15.4768 17.4813C15.2558 17.4812 15.0438 17.3932 14.8876 17.2368C14.7314 17.0804 14.6437 16.8683 14.6439 16.6473C14.644 16.4262 14.732 16.2142 14.8884 16.058C15.0448 15.9018 15.2569 15.8142 15.478 15.8143L24.2567 15.8169C24.3663 15.8166 24.4749 15.8379 24.5763 15.8797C24.6776 15.9214 24.7697 15.9827 24.8473 16.0601C24.9249 16.1375 24.9865 16.2294 25.0285 16.3306C25.0705 16.4319 25.0921 16.5404 25.0922 16.65L25.0891 16.6505ZM25.0883 13.317C25.0883 13.5128 25.0193 13.7022 24.8936 13.8522C24.7678 14.0022 24.5933 14.1032 24.4006 14.1374C24.3524 14.1458 24.3037 14.1501 24.2548 14.1504L15.476 14.1478C15.3647 14.151 15.2538 14.1318 15.1499 14.0913C15.0461 14.0509 14.9514 13.99 14.8715 13.9124C14.7917 13.8347 14.7281 13.7418 14.6848 13.6391C14.6414 13.5365 14.6191 13.4262 14.6191 13.3148C14.6191 13.2033 14.6415 13.0931 14.6849 12.9904C14.7283 12.8878 14.7918 12.7949 14.8718 12.7173C14.9517 12.6396 15.0464 12.5788 15.1502 12.5384C15.2541 12.498 15.3649 12.4788 15.4763 12.482L24.2549 12.4835C24.3646 12.4831 24.4733 12.5044 24.5747 12.546C24.6761 12.5877 24.7684 12.649 24.8461 12.7263C24.9238 12.8037 24.9854 12.8957 25.0275 12.997C25.0696 13.0982 25.0913 13.2068 25.0914 13.3165L25.0883 13.317Z" fill="#F8F8F8"/>
</svg>
