<svg width="40" height="40" viewBox="0 0 40 40" fill="none" xmlns="http://www.w3.org/2000/svg">
<rect width="40" height="40" rx="4" fill="#0C0C0C"/>
<path d="M28.4 10H11.6C10.6452 10 9.72955 10.3793 9.05442 11.0544C8.37928 11.7295 8 12.6452 8 13.6V25.6C8 26.5548 8.37928 27.4705 9.05442 28.1456C9.72955 28.8207 10.6452 29.2 11.6 29.2H28.4C29.3548 29.2 30.2705 28.8207 30.9456 28.1456C31.6207 27.4705 32 26.5548 32 25.6V13.6C32 12.6452 31.6207 11.7295 30.9456 11.0544C30.2705 10.3793 29.3548 10 28.4 10ZM28.4 12.4L20.6 17.764C20.4176 17.8693 20.2106 17.9248 20 17.9248C19.7894 17.9248 19.5824 17.8693 19.4 17.764L11.6 12.4H28.4Z" fill="#F8F8F8"/>
</svg>
