<svg width="40" height="40" viewBox="0 0 40 40" fill="none" xmlns="http://www.w3.org/2000/svg">
<rect width="40" height="40" rx="4" fill="#0C0C0C"/>
<path d="M20 8C18.4241 8 16.8637 8.31039 15.4078 8.91345C13.9519 9.5165 12.629 10.4004 11.5147 11.5147C9.26428 13.7652 8 16.8174 8 20C8 25.304 11.444 29.804 16.208 31.4C16.808 31.496 17 31.124 17 30.8V28.772C13.676 29.492 12.968 27.164 12.968 27.164C12.416 25.772 11.636 25.4 11.636 25.4C10.544 24.656 11.72 24.68 11.72 24.68C12.92 24.764 13.556 25.916 13.556 25.916C14.6 27.74 16.364 27.2 17.048 26.912C17.156 26.132 17.468 25.604 17.804 25.304C15.14 25.004 12.344 23.972 12.344 19.4C12.344 18.068 12.8 17 13.58 16.148C13.46 15.848 13.04 14.6 13.7 12.98C13.7 12.98 14.708 12.656 17 14.204C17.948 13.94 18.98 13.808 20 13.808C21.02 13.808 22.052 13.94 23 14.204C25.292 12.656 26.3 12.98 26.3 12.98C26.96 14.6 26.54 15.848 26.42 16.148C27.2 17 27.656 18.068 27.656 19.4C27.656 23.984 24.848 24.992 22.172 25.292C22.604 25.664 23 26.396 23 27.512V30.8C23 31.124 23.192 31.508 23.804 31.4C28.568 29.792 32 25.304 32 20C32 18.4241 31.6896 16.8637 31.0866 15.4078C30.4835 13.9519 29.5996 12.629 28.4853 11.5147C27.371 10.4004 26.0481 9.5165 24.5922 8.91345C23.1363 8.31039 21.5759 8 20 8Z" fill="#F8F8F8"/>
</svg>
