<svg width="40" height="40" viewBox="0 0 40 40" fill="none" xmlns="http://www.w3.org/2000/svg">
<rect width="40" height="40" rx="4" fill="#0C0C0C"/>
<path fill-rule="evenodd" clip-rule="evenodd" d="M11.4286 8C10.5193 8 9.64719 8.36122 9.00421 9.00421C8.36122 9.64719 8 10.5193 8 11.4286V28.5714C8 29.4807 8.36122 30.3528 9.00421 30.9958C9.64719 31.6388 10.5193 32 11.4286 32H28.5714C29.4807 32 30.3528 31.6388 30.9958 30.9958C31.6388 30.3528 32 29.4807 32 28.5714V11.4286C32 10.5193 31.6388 9.64719 30.9958 9.00421C30.3528 8.36122 29.4807 8 28.5714 8H11.4286ZM13.3177 15.3663C13.861 15.3663 14.3821 15.1505 14.7663 14.7663C15.1505 14.3821 15.3663 13.861 15.3663 13.3177C15.3663 12.7744 15.1505 12.2533 14.7663 11.8692C14.3821 11.485 13.861 11.2691 13.3177 11.2691C12.7744 11.2691 12.2533 11.485 11.8692 11.8692C11.485 12.2533 11.2691 12.7744 11.2691 13.3177C11.2691 13.861 11.485 14.3821 11.8692 14.7663C12.2533 15.1505 12.7744 15.3663 13.3177 15.3663ZM15.032 28.2509V16.9726H11.6034V28.2509H15.032ZM17.3086 16.9726H20.7371V18.4829C21.2429 17.6909 22.3537 16.6246 24.4194 16.6246C26.8846 16.6246 28.2234 18.2583 28.2234 21.3663C28.2234 21.5154 28.2371 22.196 28.2371 22.196V28.2491H24.8086V22.1977C24.8086 21.3663 24.6337 19.7326 22.7857 19.7326C20.936 19.7326 20.78 21.7863 20.7371 23.1303V28.2491H17.3086V16.9726Z" fill="#F8F8F8"/>
</svg>
