<svg width="18" height="18" viewBox="0 0 18 18" fill="none" xmlns="http://www.w3.org/2000/svg">
<g clip-path="url(#clip0_126_2487)">
<path d="M9 18C13.9706 18 18 13.9706 18 9C18 4.02944 13.9706 0 9 0C4.02944 0 0 4.02944 0 9C0 13.9706 4.02944 18 9 18Z" fill="white"/>
<path d="M14.9507 15.752L6.91401 5.40002H5.3999V12.5971H6.61125V6.93832L13.9997 16.4845C14.3326 16.2618 14.6504 16.0171 14.9507 15.752Z" fill="url(#paint0_linear_126_2487)"/>
<path d="M11.5 5.40002H12.7V12.6H11.5V5.40002Z" fill="url(#paint1_linear_126_2487)"/>
</g>
<defs>
<linearGradient id="paint0_linear_126_2487" x1="10.8999" y1="11.65" x2="14.4499" y2="16.05" gradientUnits="userSpaceOnUse">
<stop/>
<stop offset="1" stop-color="white" stop-opacity="0"/>
</linearGradient>
<linearGradient id="paint1_linear_126_2487" x1="12.0999" y1="5.40002" x2="12.0798" y2="10.6875" gradientUnits="userSpaceOnUse">
<stop/>
<stop offset="1" stop-color="white" stop-opacity="0"/>
</linearGradient>
<clipPath id="clip0_126_2487">
<rect width="18" height="18" fill="white"/>
</clipPath>
</defs>
</svg>
