<svg width="18" height="18" viewBox="0 0 18 18" fill="none" xmlns="http://www.w3.org/2000/svg">
<g clip-path="url(#clip0_122_2435)">
<path d="M0.84375 0C0.3765 0 0 0.3765 0 0.84375V17.1562C0 17.6235 0.3765 18 0.84375 18H17.1562C17.6235 18 18 17.6235 18 17.1562V0.84375C18 0.3765 17.6235 0 17.1562 0H0.84375ZM13.866 7.3125C14.325 7.3125 14.7317 7.34025 15.0862 7.39575C15.4208 7.44599 15.7491 7.53147 16.0657 7.65075V9.49425C15.9137 9.38934 15.7522 9.29871 15.5835 9.2235C15.4095 9.1449 15.2297 9.07971 15.0458 9.0285C14.6974 8.93185 14.3378 8.88141 13.9763 8.8785C13.7513 8.8785 13.5465 8.9 13.362 8.943C13.1976 8.97817 13.0398 9.03944 12.8948 9.1245C12.7678 9.2025 12.6695 9.296 12.6 9.405C12.5303 9.51483 12.4939 9.64244 12.495 9.7725C12.495 9.9195 12.534 10.0518 12.612 10.1693C12.69 10.2863 12.8008 10.3973 12.9443 10.5023C13.1595 10.6598 13.2615 10.7093 13.4662 10.8098C13.6712 10.9113 13.9028 11.0153 14.1608 11.1218C14.5133 11.2698 14.8297 11.4267 15.1102 11.5927C15.3907 11.7592 15.6315 11.9475 15.8325 12.1575C16.0335 12.3665 16.187 12.6057 16.293 12.8752C16.3995 13.1442 16.453 13.4575 16.4535 13.815C16.4535 14.308 16.3603 14.722 16.1738 15.057C15.9929 15.3875 15.7319 15.6673 15.4147 15.8707C15.0735 16.0867 14.6955 16.2383 14.2995 16.3177C13.8745 16.4077 13.427 16.4528 12.957 16.4528C12.4942 16.4544 12.0322 16.4132 11.577 16.3298C11.1831 16.2621 10.8011 16.1375 10.443 15.96V13.9875C11.1207 14.5645 11.9807 14.8833 12.8707 14.8875C13.1207 14.8875 13.3388 14.865 13.5248 14.82C13.7113 14.775 13.867 14.7125 13.992 14.6325C14.1165 14.5515 14.2097 14.4565 14.2717 14.3475C14.3408 14.2201 14.3723 14.0757 14.3624 13.9311C14.3526 13.7865 14.3019 13.6477 14.2162 13.5308C14.105 13.3831 13.9687 13.2561 13.8135 13.1558C13.6212 13.0283 13.4188 12.9169 13.2083 12.8228C12.9587 12.7088 12.7069 12.5998 12.453 12.4957C11.7645 12.2082 11.2512 11.857 10.9132 11.442C10.5752 11.027 10.4062 10.5258 10.4062 9.93825C10.4062 9.47825 10.4985 9.08275 10.683 8.75175C10.867 8.42075 11.118 8.1485 11.436 7.935C11.7724 7.7132 12.1458 7.55343 12.5385 7.46325C12.9734 7.36044 13.4191 7.30983 13.866 7.3125ZM2.53125 7.4535H9.7035V9.078H7.1295V16.3125H5.09175V9.078H2.53125V7.4535Z" fill="#404040"/>
</g>
<defs>
<clipPath id="clip0_122_2435">
<rect width="18" height="18" fill="white"/>
</clipPath>
</defs>
</svg>
